<svg width="46" height="48" viewBox="0 0 46 48" xmlns="http://www.w3.org/2000/svg"><title>Combined Shape</title><defs><linearGradient x1="24.98%" y1="-9.284%" x2="74.504%" y2="96.42%" id="a"><stop stop-color="#FA9815" offset="0%"/><stop stop-color="#BA02FD" offset="72.173%"/><stop stop-color="#5225EE" offset="100%"/></linearGradient></defs><path d="M18.03 6.695c.981-.173 1.986-.26 3.005-.26a17.004 17.004 0 0 1 6.087 1.102 16.542 16.542 0 0 1 3.87 2.085 15.932 15.932 0 0 1 2.126 1.848 1.707 1.707 0 0 1-2.463 2.368c-.53-.55-1.089-1.038-1.663-1.452a13.151 13.151 0 0 0-3.07-1.655 13.913 13.913 0 0 0-7.3-.674 14.813 14.813 0 0 0-3.731 1.168 15.442 15.442 0 0 0-3.415 2.188 16.02 16.02 0 0 0-2.812 3.11 16.68 16.68 0 0 0-1.965 3.865 17.05 17.05 0 0 0-.959 5.653c0 1.132.108 2.255.321 3.34a18.14 18.14 0 0 0 1.517 4.515 18.688 18.688 0 0 0 2.723 4.076 19.232 19.232 0 0 0 3.804 3.314 19.688 19.688 0 0 0 4.658 2.271 20.414 20.414 0 0 0 6.406 1.032c1.45 0 2.89-.15 4.277-.444a21.013 21.013 0 0 0 5.29-1.867 22.054 22.054 0 0 0 3.91-2.545 1.702 1.702 0 0 1 2.397.244 1.708 1.708 0 0 1-.244 2.4 25.715 25.715 0 0 1-4.506 2.942 24.88 24.88 0 0 1-6.138 2.165A24.23 24.23 0 0 1 25.17 48c-.42 0-.866-.012-1.362-.036a23.677 23.677 0 0 1-6.11-1.17 23.34 23.34 0 0 1-5.473-2.658 22.516 22.516 0 0 1-4.478-3.908 21.996 21.996 0 0 1-3.226-4.822 21.396 21.396 0 0 1-1.807-5.364 20.743 20.743 0 0 1-.331-5.511 20.32 20.32 0 0 1 1.094-5.264 20.064 20.064 0 0 1 2.369-4.672 19.38 19.38 0 0 1 3.421-3.78 18.852 18.852 0 0 1 4.17-2.678 18.256 18.256 0 0 1 4.594-1.442zm16.617 9.828a2.18 2.18 0 0 1 .581-.081 2.16 2.16 0 0 1 1.874 3.218c-.28.5-.74.86-1.299 1.01-.188.054-.38.082-.575.082a2.15 2.15 0 0 1-2.074-1.574 2.14 2.14 0 0 1 .194-1.636 2.161 2.161 0 0 1 1.299-1.02zm8.233 18.614a1.713 1.713 0 0 1 2.376-.431c.374.258.625.647.706 1.095.082.45-.015.906-.275 1.28a1.695 1.695 0 0 1-1.403.734c-.351 0-.686-.104-.968-.303a1.694 1.694 0 0 1-.709-1.095c-.08-.45.017-.904.273-1.28zm-9.226-10.345a1.712 1.712 0 0 1 2.088-1.213 1.717 1.717 0 0 1 1.214 2.09 14.95 14.95 0 0 1-.613 1.802 13.24 13.24 0 0 1-1.805 3.066 12.4 12.4 0 0 1-5.338 3.949c-.962.364-1.994.602-3.066.706a11.121 11.121 0 0 1-3.004-.144 10.587 10.587 0 0 1-2.726-.905 10.042 10.042 0 0 1-2.033-1.338 1.688 1.688 0 0 1-.599-1.158 1.707 1.707 0 0 1 .393-1.247c.33-.385.807-.607 1.306-.607.402 0 .792.145 1.102.407.417.352.903.672 1.332.88a7.363 7.363 0 0 0 3.911.712 8.498 8.498 0 0 0 2.164-.492 8.879 8.879 0 0 0 2.074-1.128 9.286 9.286 0 0 0 1.797-1.737 9.783 9.783 0 0 0 1.34-2.275c.182-.433.338-.894.463-1.368zm-17.22-1.823a2.125 2.125 0 0 1 1.573-.471 2.168 2.168 0 0 1 1.929 2.362 2.153 2.153 0 0 1-3.815 1.146 2.15 2.15 0 0 1 .312-3.037zM21.066 0h.155c.42 0 .842.013 1.264.035 2.05.111 4.107.504 6.115 1.166a23.377 23.377 0 0 1 5.473 2.663 22.672 22.672 0 0 1 4.478 3.908 21.822 21.822 0 0 1 3.222 4.822 21.478 21.478 0 0 1 1.81 5.362c.253 1.309.38 2.655.38 4.002 0 .47-.016.98-.05 1.51a20.407 20.407 0 0 1-1.097 5.265 19.927 19.927 0 0 1-2.368 4.671 19.503 19.503 0 0 1-3.419 3.781 18.607 18.607 0 0 1-4.173 2.673 18.169 18.169 0 0 1-4.594 1.446c-1.52.265-3.066.332-4.674.18a17.077 17.077 0 0 1-4.417-1.021 16.565 16.565 0 0 1-3.867-2.085 16.081 16.081 0 0 1-3.083-2.936 15.409 15.409 0 0 1-2.124-3.525 14.85 14.85 0 0 1-1.078-3.82 13.973 13.973 0 0 1-.144-2.002c0-.604.04-1.223.117-1.838.153-1.213.475-2.415.961-3.572a13.342 13.342 0 0 1 1.8-3.07 12.865 12.865 0 0 1 2.459-2.376 12.09 12.09 0 0 1 2.884-1.568 11.845 11.845 0 0 1 3.059-.706c.31-.03.634-.045.964-.045.675 0 1.375.062 2.042.183.936.176 1.854.481 2.725.906.805.397 1.568.916 2.265 1.538.63.57 1.19 1.243 1.668 1.997.421.67.758 1.43 1.001 2.256.203.726.308 1.483.312 2.248v.071a7.825 7.825 0 0 1-.334 2.18 7.292 7.292 0 0 1-.887 1.882 6.82 6.82 0 0 1-1.313 1.45c-.472.38-.991.688-1.584.94-.515.2-1.034.32-1.631.377a1.71 1.71 0 0 1-1.844-1.56 1.712 1.712 0 0 1 1.545-1.842c.152 0 .545-.09.64-.135.174-.069.562-.289.697-.405a3.63 3.63 0 0 0 .638-.697c.18-.27.394-.714.472-.984.105-.34.185-.83.189-1.17v-.069a5.124 5.124 0 0 0-.179-1.34 5.819 5.819 0 0 0-.608-1.384 6.228 6.228 0 0 0-1.062-1.276 6.58 6.58 0 0 0-1.484-1.01 7.327 7.327 0 0 0-1.834-.615 7.691 7.691 0 0 0-2.077-.096 8.395 8.395 0 0 0-2.164.493 8.83 8.83 0 0 0-2.07 1.122 9.442 9.442 0 0 0-1.8 1.742 10.055 10.055 0 0 0-1.342 2.273 10.727 10.727 0 0 0-.721 2.688c-.06.473-.09.948-.09 1.412 0 .524.035 1.033.107 1.51.146 1.029.434 2.049.831 2.95.43.991 1 1.94 1.652 2.745.702.874 1.54 1.674 2.421 2.314a13.401 13.401 0 0 0 3.069 1.655c1.142.427 2.365.71 3.536.82 1.277.113 2.58.064 3.768-.146a15.014 15.014 0 0 0 3.733-1.169 15.615 15.615 0 0 0 3.415-2.191 16.128 16.128 0 0 0 2.811-3.106c.82-1.2 1.5-2.537 1.964-3.867a17.177 17.177 0 0 0 .956-5.652c0-1.146-.109-2.271-.322-3.343a17.968 17.968 0 0 0-1.515-4.511 18.498 18.498 0 0 0-2.724-4.076 19.013 19.013 0 0 0-3.799-3.315 19.696 19.696 0 0 0-4.662-2.27 20.173 20.173 0 0 0-5.23-1c-1.83-.108-3.666.03-5.454.411a21.132 21.132 0 0 0-5.292 1.864l-.137.073a9.55 9.55 0 0 0-.323.173 1.704 1.704 0 0 1-2.315-.69 1.678 1.678 0 0 1-.136-1.297 1.69 1.69 0 0 1 .824-1.014 24.657 24.657 0 0 1 6.67-2.448A24.171 24.171 0 0 1 21.067 0zM.21 12.41a1.199 1.199 0 0 1 1.66-.303c.26.18.437.453.493.767.058.313-.01.63-.192.893-.22.322-.586.513-.98.513-.245 0-.48-.074-.678-.213A1.182 1.182 0 0 1 0 13.11v-.047c.005-.232.076-.458.21-.653zm3.57-5.083a1.715 1.715 0 0 1 2.377-.432c.374.257.624.646.706 1.096a1.7 1.7 0 0 1-.276 1.28c-.314.46-.84.733-1.403.733-.35 0-.685-.104-.966-.302L4.216 9.7a1.686 1.686 0 0 1-.707-1.096 1.716 1.716 0 0 1 .272-1.278z" fill="url(#a)" fill-rule="evenodd"/></svg>