<svg width="45" height="43" viewBox="0 0 45 43" xmlns="http://www.w3.org/2000/svg"><title>Rectangle 15</title><defs><linearGradient x1="-21.573%" y1="128.581%" x2="136.889%" y2="-72.693%" id="a"><stop stop-color="#FDDF68" offset="0%"/><stop stop-color="#FF7C5D" offset="100%"/></linearGradient></defs><path d="M653.66 104.955a6 6 0 0 0-8.2 2.183l-8.147 14.057a6 6 0 0 0 5.191 9.008h16.293a6 6 0 0 0 5.192-9.008l-8.147-14.057a6 6 0 0 0-2.183-2.183zm17.25 12.228c3.877 6.69 1.597 15.256-5.093 19.133a14 14 0 0 1-7.02 1.887h-16.293c-7.732 0-14-6.268-14-14a14 14 0 0 1 1.887-7.02l8.147-14.057c3.877-6.69 12.443-8.97 19.133-5.092a14 14 0 0 1 5.093 5.092l8.146 14.057z" transform="translate(-628 -96)" fill-rule="nonzero" fill="url(#a)"/></svg>